<svg width="34" height="34" viewBox="0 0 34 34" fill="none" xmlns="http://www.w3.org/2000/svg">
<path fill-rule="evenodd" clip-rule="evenodd" d="M17 33C25.8366 33 33 25.8366 33 17C33 8.16344 25.8366 1 17 1C8.16344 1 1 8.16344 1 17C1 25.8366 8.16344 33 17 33Z" fill="white" stroke="#979797"/>
<path fill-rule="evenodd" clip-rule="evenodd" d="M19.79 8.29L20.5 9H23C23.55 9 24 9.45 24 10C24 10.55 23.55 11 23 11H11C10.45 11 10 10.55 10 10C10 9.45 10.45 9 11 9H13.5L14.21 8.29C14.39 8.11 14.65 8 14.91 8H19.09C19.35 8 19.61 8.11 19.79 8.29ZM11 24C11 25.1 11.9 26 13 26H21C22.1 26 23 25.1 23 24V14C23 12.9 22.1 12 21 12H13C11.9 12 11 12.9 11 14V24ZM14.17 16.17C14.56 15.78 15.19 15.78 15.58 16.17L17 17.59L18.42 16.17C18.81 15.78 19.44 15.78 19.83 16.17C20.22 16.56 20.22 17.19 19.83 17.58L18.41 19L19.83 20.42C20.22 20.81 20.22 21.44 19.83 21.83C19.44 22.22 18.81 22.22 18.42 21.83L17 20.41L15.58 21.83C15.19 22.22 14.56 22.22 14.17 21.83C13.78 21.44 13.78 20.81 14.17 20.42L15.59 19L14.17 17.58C13.78 17.2 13.78 16.56 14.17 16.17Z" fill="#4A4A4A"/>
</svg>
