<svg width="34" height="34" viewBox="0 0 34 34" fill="none" xmlns="http://www.w3.org/2000/svg">
<path fill-rule="evenodd" clip-rule="evenodd" d="M17 33C25.8366 33 33 25.8366 33 17C33 8.16344 25.8366 1 17 1C8.16344 1 1 8.16344 1 17C1 25.8366 8.16344 33 17 33Z" fill="white" stroke="#979797"/>
<path fill-rule="evenodd" clip-rule="evenodd" d="M25.71 10.63C26.1 11.02 26.1 11.65 25.71 12.04L23.88 13.87L20.13 10.12L21.96 8.29C22.35 7.9 22.98 7.9 23.37 8.29L25.71 10.63ZM8 25.5V22.46C8 22.32 8.05 22.2 8.15 22.1L19.06 11.19L22.81 14.94L11.89 25.85C11.8 25.95 11.67 26 11.54 26H8.5C8.22 26 8 25.78 8 25.5Z" fill="#4A4A4A"/>
</svg>
